<?xml version="1.0" standalone="no"?><!DOCTYPE svg PUBLIC "-//W3C//DTD SVG 1.1//EN" "http://www.w3.org/Graphics/SVG/1.1/DTD/svg11.dtd"><svg width="100%" height="100%" viewBox="0 0 420 180" version="1.1" xmlns="http://www.w3.org/2000/svg" xmlns:xlink="http://www.w3.org/1999/xlink" xml:space="preserve" style="fill-rule:evenodd;clip-rule:evenodd;stroke-linejoin:round;stroke-miterlimit:1.41421;"><rect id="XMLID_32_" x="-0.2" y="0" width="420.2" height="180" style="fill:#02aadc;"/><g id="XMLID_12_"><g id="XMLID_3_"><g id="XMLID_1_"><path id="XMLID_53_" d="M209.9,68c-0.7,0 -1.3,-0.6 -1.3,-1.3l0,-8.9c0,-0.7 0.6,-1.3 1.3,-1.3c0.7,0 1.3,0.6 1.3,1.3l0,8.9c-0.1,0.7 -0.6,1.3 -1.3,1.3ZM209.9,50.1c-0.7,0 -1.3,-0.6 -1.3,-1.3l0,-8.9c0,-0.7 0.6,-1.3 1.3,-1.3c0.7,0 1.3,0.6 1.3,1.3l0,8.9c-0.1,0.8 -0.6,1.3 -1.3,1.3ZM209.9,32.3c-0.7,0 -1.3,-0.6 -1.3,-1.3l0,-0.9c0,-3.5 2.9,-6.4 6.4,-6.4c0.7,0 1.3,0.6 1.3,1.3c0,0.7 -0.6,1.3 -1.3,1.3c-2.1,0 -3.8,1.7 -3.8,3.8l0,0.9c-0.1,0.7 -0.6,1.3 -1.3,1.3l2.84217e-14,0ZM268.5,26.3l-8.9,0c-0.7,0 -1.3,-0.6 -1.3,-1.3c0,-0.7 0.6,-1.3 1.3,-1.3l8.9,0c0.7,0 1.3,0.6 1.3,1.3c-0.1,0.7 -0.6,1.3 -1.3,1.3ZM250.6,26.3l-8.9,0c-0.7,0 -1.3,-0.6 -1.3,-1.3c0,-0.7 0.6,-1.3 1.3,-1.3l8.9,0c0.7,0 1.3,0.6 1.3,1.3c0,0.7 -0.6,1.3 -1.3,1.3ZM232.8,26.3l-8.9,0c-0.7,0 -1.3,-0.6 -1.3,-1.3c0,-0.7 0.6,-1.3 1.3,-1.3l8.9,0c0.7,0 1.3,0.6 1.3,1.3c-2.84217e-14,0.7 -0.6,1.3 -1.3,1.3ZM317.1,66.7l0,-8.9c0,-0.7 0.6,-1.3 1.3,-1.3c0.7,0 1.3,0.6 1.3,1.3l0,8.9c0,0.7 -0.6,1.3 -1.3,1.3c-0.7,0 -1.3,-0.6 -1.3,-1.3ZM317.1,84.6l0,-8.9c0,-0.7 0.6,-1.3 1.3,-1.3c0.7,0 1.3,0.6 1.3,1.3l0,8.9c0,0.7 -0.6,1.3 -1.3,1.3c-0.7,1.42109e-14 -1.3,-0.6 -1.3,-1.3ZM317.1,48.9l0,-8.9c0,-0.7 0.6,-1.3 1.3,-1.3c0.7,0 1.3,0.6 1.3,1.3l0,8.9c0,0.7 -0.6,1.3 -1.3,1.3c-0.7,-0.1 -1.3,-0.6 -1.3,-1.3ZM317.1,31l0,-0.9c0,-2.1 -1.7,-3.8 -3.8,-3.8c-0.7,0 -1.3,-0.6 -1.3,-1.3c0,-0.7 0.6,-1.3 1.3,-1.3c3.5,0 6.4,2.9 6.4,6.4l0,0.9c0,0.7 -0.6,1.3 -1.3,1.3c-0.7,0 -1.3,-0.6 -1.3,-1.3l5.68434e-14,3.55271e-15ZM258.5,25c0,-0.7 0.6,-1.3 1.3,-1.3l8.9,0c0.7,0 1.3,0.6 1.3,1.3c0,0.7 -0.6,1.3 -1.3,1.3l-8.9,0c-0.7,0 -1.3,-0.6 -1.3,-1.3ZM276.3,25c0,-0.7 0.6,-1.3 1.3,-1.3l8.9,0c0.7,0 1.3,0.6 1.3,1.3c0,0.7 -0.6,1.3 -1.3,1.3l-8.9,0c-0.7,0 -1.3,-0.6 -1.3,-1.3ZM294.1,25c0,-0.7 0.6,-1.3 1.3,-1.3l8.9,0c0.7,0 1.3,0.6 1.3,1.3c0,0.7 -0.6,1.3 -1.3,1.3l-8.9,0c-0.7,0 -1.3,-0.6 -1.3,-1.3Z" style="fill:#fff;fill-rule:nonzero;"/><path id="XMLID_69_" d="M211.1,91.5l0,8.9c0,0.7 -0.6,1.3 -1.3,1.3c-0.7,0 -1.3,-0.6 -1.3,-1.3l0,-8.9c0,-0.7 0.6,-1.3 1.3,-1.3c0.7,0 1.3,0.6 1.3,1.3ZM211.1,109.4l0,8.9c0,0.7 -0.6,1.3 -1.3,1.3c-0.7,0 -1.3,-0.6 -1.3,-1.3l0,-8.9c0,-0.7 0.6,-1.3 1.3,-1.3c0.7,0 1.3,0.6 1.3,1.3ZM211.1,127.2l0,0.9c0,2.1 1.7,3.8 3.8,3.8c0.7,0 1.3,0.6 1.3,1.3c0,0.7 -0.6,1.3 -1.3,1.3c-3.5,0 -6.4,-2.9 -6.4,-6.4l0,-0.9c0,-0.7 0.6,-1.3 1.3,-1.3c0.7,0 1.3,0.6 1.3,1.3l-2.84217e-14,-1.42109e-14ZM269.7,133.2c0,0.7 -0.6,1.3 -1.3,1.3l-8.9,0c-0.7,0 -1.3,-0.6 -1.3,-1.3c0,-0.7 0.6,-1.3 1.3,-1.3l8.9,0c0.8,2.84217e-14 1.3,0.6 1.3,1.3ZM251.9,133.2c0,0.7 -0.6,1.3 -1.3,1.3l-8.9,0c-0.7,0 -1.3,-0.6 -1.3,-1.3c0,-0.7 0.6,-1.3 1.3,-1.3l8.9,0c0.7,2.84217e-14 1.3,0.6 1.3,1.3ZM234.1,133.2c0,0.7 -0.6,1.3 -1.3,1.3l-8.9,0c-0.7,0 -1.3,-0.6 -1.3,-1.3c0,-0.7 0.6,-1.3 1.3,-1.3l8.9,0c0.7,2.84217e-14 1.3,0.6 1.3,1.3ZM318.4,92.2c0.7,0 1.3,0.6 1.3,1.3l0,8.9c0,0.7 -0.6,1.3 -1.3,1.3c-0.7,0 -1.3,-0.6 -1.3,-1.3l0,-8.9c5.68434e-14,-0.7 0.6,-1.3 1.3,-1.3ZM318.4,108.1c0.7,0 1.3,0.6 1.3,1.3l0,8.9c0,0.7 -0.6,1.3 -1.3,1.3c-0.7,0 -1.3,-0.6 -1.3,-1.3l0,-8.9c5.68434e-14,-0.7 0.6,-1.3 1.3,-1.3ZM318.4,125.9c0.7,0 1.3,0.6 1.3,1.3l0,0.9c0,3.5 -2.9,6.4 -6.4,6.4c-0.7,0 -1.3,-0.6 -1.3,-1.3c0,-0.7 0.6,-1.3 1.3,-1.3c2.1,0 3.8,-1.7 3.8,-3.8l0,-0.9c0,-0.7 0.6,-1.3 1.3,-1.3l-5.68434e-14,4.26326e-14ZM259.8,131.9l8.9,0c0.7,0 1.3,0.6 1.3,1.3c0,0.7 -0.6,1.3 -1.3,1.3l-8.9,0c-0.7,0 -1.3,-0.6 -1.3,-1.3c0,-0.7 0.6,-1.3 1.3,-1.3ZM277.6,131.9l8.9,0c0.7,0 1.3,0.6 1.3,1.3c0,0.7 -0.6,1.3 -1.3,1.3l-8.9,0c-0.7,0 -1.3,-0.6 -1.3,-1.3c0,-0.7 0.6,-1.3 1.3,-1.3ZM295.4,131.9l8.9,0c0.7,0 1.3,0.6 1.3,1.3c0,0.7 -0.6,1.3 -1.3,1.3l-8.9,0c-0.7,0 -1.3,-0.6 -1.3,-1.3c5.68434e-14,-0.7 0.6,-1.3 1.3,-1.3Z" style="fill:#fff;fill-rule:nonzero;"/><path id="XMLID_30_" d="M268.9,76.4l-5.6,0l0,-5.6c0,-0.8 -0.6,-1.4 -1.4,-1.4c-0.8,0 -1.4,0.6 -1.4,1.4l0,5.6l-5.6,0c-0.8,0 -1.4,0.6 -1.4,1.4c0,0.8 0.6,1.4 1.4,1.4l5.6,0l0,4.9c0,0.8 0.6,1.4 1.4,1.4c0.8,0 1.4,-0.6 1.4,-1.4l0,-4.9l5.6,0c0.8,0 1.4,-0.6 1.4,-1.4c0,-0.8 -0.7,-1.4 -1.4,-1.4Z" style="fill:#fff;fill-rule:nonzero;"/></g><g id="XMLID_2_"><g id="XMLID_90_"><path id="XMLID_101_" d="M221.2,148.4l-88.8,0c-4.4,0 -8,-3.6 -8,-8l0,-88.8c0,-4.4 3.6,-8 8,-8l88.8,0c4.4,0 8,3.6 8,8l0,88.8c0,4.4 -3.6,8 -8,8Z" style="fill:#eaeff2;fill-rule:nonzero;"/><rect id="XMLID_100_" x="140.5" y="85.1" width="20.1" height="54.4" style="fill:#92afc2;"/><rect id="XMLID_99_" x="140.5" y="85.1" width="10.1" height="54.4" style="fill:#b1c6d4;"/><rect id="XMLID_98_" x="166.7" y="59.7" width="20.1" height="79.7" style="fill:#92afc2;"/><rect id="XMLID_97_" x="166.7" y="59.7" width="10.1" height="79.7" style="fill:#b1c6d4;"/><rect id="XMLID_96_" x="193" y="72.7" width="20.1" height="66.7" style="fill:#92afc2;"/><rect id="XMLID_95_" x="193" y="72.7" width="10.1" height="66.7" style="fill:#b1c6d4;"/><path id="XMLID_25_" d="M229.2,74.2l-10.2,13.2c-14.6,19.2 -23.5,29.6 -31.5,33.4c-6.6,3.1 -11.2,4.5 -21.4,-6.7c-1.2,-1.3 -2.3,-2.6 -3.7,-4.2c-0.5,-0.6 -1.1,-1.2 -1.7,-1.9c-5.3,-6.1 -11.1,-8.9 -17.6,-8.5c-7.4,0.5 -14.2,5.2 -18.7,9.8l0,7.5c4,-4.8 11.2,-11.7 19.1,-12.2c4.9,-0.3 9.2,1.9 13.4,6.7c0.6,0.7 1.1,1.3 1.6,1.9c1.4,1.6 2.5,2.9 3.8,4.3c7,7.6 12.4,10.5 17.7,10.5c3.2,0 6.3,-1 9.8,-2.7c9,-4.2 17.9,-14.6 33.4,-34.9l6.1,-7.9l0,-8.3l-0.1,0l-5.68434e-14,0Z" style="fill:#4a5668;fill-rule:nonzero;"/><circle id="XMLID_93_" cx="177.1" cy="124.6" r="6" style="fill:#fff;"/><circle id="XMLID_92_" cx="203.3" cy="110.5" r="6" style="fill:#fff;"/><circle id="XMLID_91_" cx="150.9" cy="102.8" r="6" style="fill:#fff;"/></g></g></g><g id="XMLID_10_"><path id="XMLID_7_" d="M160,141.8l-4.9,38.2l-25.9,0l30.8,-38.2Z" style="fill:#495668;fill-opacity:0.4;fill-rule:nonzero;"/><path id="XMLID_11_" d="M140.6,180.1l16.7,-28.9c5.2,-9 2.6,-20.3 -5.7,-25.1c-8.3,-4.8 -19.4,-1.4 -24.6,7.6l-26.8,46.4l40.4,0Z" style="fill:#e2d1ae;fill-rule:nonzero;"/><path id="XMLID_8_" d="M152.8,148.3c3.5,-6.1 1.7,-13.8 -4.1,-17.1c-5.8,-3.3 -13.4,-1.1 -16.9,5c-0.1,0.1 -0.1,0.2 -0.2,0.3l-0.1,0.1l-5.1,8.8c-0.7,1.2 -0.2,2.8 1.1,3.6l16.2,9.3c1.3,0.8 3,0.4 3.7,-0.8l5.1,-8.8c0,0 0,-0.1 0.1,-0.1c0,-0.1 0.1,-0.2 0.2,-0.3l2.84217e-14,0Z" style="fill:#ece3ce;fill-rule:nonzero;"/><path id="XMLID_9_" d="M143.6,158.3c0.9,-2.3 -1.6,-5.9 -5.8,-8.4c-4.2,-2.4 -8.6,-2.8 -10.1,-0.9l15.9,9.3Z" style="fill:#fff;fill-rule:nonzero;"/><g id="XMLID_4_"><path id="XMLID_5_" d="M139.8,167.6l-18.8,-10.8c-0.6,-0.4 -0.8,-1.1 -0.5,-1.8c0.4,-0.6 1.1,-0.8 1.8,-0.5l18.8,10.8c0.6,0.4 0.8,1.1 0.5,1.8c-0.4,0.7 -1.2,0.9 -1.8,0.5Z" style="fill:#cfbc96;fill-rule:nonzero;"/><path id="XMLID_6_" d="M137,172.5l-18.8,-10.8c-0.6,-0.4 -0.8,-1.1 -0.5,-1.8c0.4,-0.6 1.1,-0.8 1.8,-0.5l18.8,10.8c0.6,0.4 0.8,1.1 0.5,1.8c-0.4,0.6 -1.2,0.9 -1.8,0.5Z" style="fill:#cfbc96;fill-rule:nonzero;"/></g></g></g></svg>