<?xml version="1.0" encoding="iso-8859-1"?>
<!-- Generator: Adobe Illustrator 19.1.0, SVG Export Plug-In . SVG Version: 6.00 Build 0)  -->
<svg version="1.1" xmlns="http://www.w3.org/2000/svg" xmlns:xlink="http://www.w3.org/1999/xlink" x="0px" y="0px"
	 viewBox="0 0 24 24" style="enable-background:new 0 0 24 24;" xml:space="preserve">
<g id="clipboard">
	<path d="M16,18H8v-2h8V18z M16,12H8v2h8V12z M18,3h-2v2h2v15H6V5h2V3H6C4.895,3,4,3.895,4,5v15c0,1.105,0.895,2,2,2h12
		c1.105,0,2-0.895,2-2V5C20,3.895,19.105,3,18,3z M14,5V4c0-1.105-0.895-2-2-2s-2,0.895-2,2v1C8.895,5,8,5.895,8,7v1h8V7
		C16,5.895,15.105,5,14,5z"/>
</g>
<g id="Layer_1">
</g>
</svg>