<?xml version="1.0" encoding="UTF-8" standalone="no"?>
<svg width="32px" height="32px" viewBox="0 0 32 32" version="1.1" xmlns="http://www.w3.org/2000/svg" xmlns:xlink="http://www.w3.org/1999/xlink">
    <!-- Generator: Sketch 3.7.2 (28276) - http://www.bohemiancoding.com/sketch -->
    <title>gridicons-pencil</title>
    <desc>Created with Sketch.</desc>
    <defs></defs>
    <g id="Page-1" stroke="none" stroke-width="1" fill="none" fill-rule="evenodd">
        <g id="gridicons-pencil" fill="#FFFFFF">
            <path d="M17.3333333,8 L24,14.6666667 L11.324,27.3426667 C10.4093333,26.428 10.404,24.9506667 11.308,24.0293333 L11.3053333,24.0253333 C10.3853333,24.9266667 8.90533333,24.9226667 7.992,24.008 C7.08933333,23.1053333 7.07733333,21.6586667 7.944,20.7346667 L7.93333333,20.724 C7.008,21.5906667 5.56,21.5773333 4.65866667,20.676 L17.3333333,8 L17.3333333,8 Z M27.448,7.448 L24.552,4.552 C23.512,3.512 21.8226667,3.512 20.7813333,4.552 L18.6666667,6.66666667 L25.3333333,13.3333333 L27.448,11.2186667 C28.488,10.1786667 28.488,8.48933333 27.448,7.448 L27.448,7.448 Z M4,24 L4,28 L8,28 C8,25.7906667 6.20933333,24 4,24 L4,24 Z" id="Shape"></path>
        </g>
    </g>
</svg>