<?xml version="1.0" encoding="utf-8"?>
<svg version="1.1" xmlns="http://www.w3.org/2000/svg" xmlns:xlink="http://www.w3.org/1999/xlink" width="1280" height="720" viewBox="0 0 1280 720" style="background:#2e4453">
<svg x="512" y="232" width="256" height="256" viewBox="0 0 24 24">
	<path fill="#FFFFFF" d="M20,4v2h-2V4H6v2H4V4C2.9,4,2,4.9,2,6v12c0,1.1,0.9,2,2,2v-2h2v2h12v-2h2v2c1.1,0,2-0.9,2-2V6
	C22,4.9,21.1,4,20,4z M6,16H4v-3h2V16z M6,11H4V8h2V11z M10,15V9l4.5,3L10,15z M20,16h-2v-3h2V16z M20,11h-2V8h2V11z"/>
</svg>
</svg>