<?xml version="1.0" encoding="UTF-8"?>
<svg width="2642px" height="1778px" viewBox="0 0 2642 1778" version="1.1" xmlns="http://www.w3.org/2000/svg">
    <!-- Generator: Sketch 53.2 (72643) - https://sketchapp.com -->
    <title>Devices/Nexus 9 - Landscape</title>
    <desc>Created with Sketch.</desc>
    <g id="Devices/Nexus-9---Landscape" stroke="none" stroke-width="1" fill="none" fill-rule="evenodd">
        <g id="Nexus-9---Landscape" transform="translate(12.345794, 12.345794)" fill-rule="nonzero">
            <rect id="Body" stroke="#204A69" stroke-width="12.3457944" fill="#204A69" x="-6.1728972" y="-6.1728972" width="2629.65421" height="1765.4486" rx="69.9595016"></rect>
            <circle id="Camera" fill="#23354B" cx="135.803738" cy="876.551402" r="16.4610592"></circle>
            <path d="M1065.70525,2166.68692 L1551.60316,2166.68692 C1555.34567,2166.68692 1558.79299,2168.71923 1560.60502,2171.99382 L1567.91589,2185.20561 L1049.39252,2185.20561 L1056.7034,2171.99382 C1058.51542,2168.71923 1061.96274,2166.68692 1065.70525,2166.68692 Z M1551.60316,-413.584112 L1065.70525,-413.584112 C1061.96274,-413.584112 1058.51542,-415.616423 1056.7034,-418.891013 L1049.39252,-432.102804 L1567.91589,-432.102804 L1560.60502,-418.891013 C1558.79299,-415.616423 1555.34567,-413.584112 1551.60316,-413.584112 Z" id="Shape" fill="#23354B" transform="translate(1308.654206, 876.551402) rotate(-90.000000) translate(-1308.654206, -876.551402) "></path>
        </g>
    </g>
</svg>