<?xml version="1.0" encoding="iso-8859-1"?>
<!-- Generator: Adobe Illustrator 19.1.0, SVG Export Plug-In . SVG Version: 6.00 Build 0)  -->
<svg version="1.1" xmlns="http://www.w3.org/2000/svg" xmlns:xlink="http://www.w3.org/1999/xlink" x="0px" y="0px"
	 viewBox="0 0 24 24" style="enable-background:new 0 0 24 24;" xml:space="preserve">
<g id="history">
	<g>
		<path d="M2.12,13.526c0.742,4.781,4.902,8.47,9.881,8.47c5.499,0,9.998-4.499,9.998-9.998S17.501,2,12.002,2
			C8.704,2,5.802,3.601,4,6l0,0V2.001L2.003,2L2,9h7V7L5.801,6.999l0,0C7.2,5.201,9.502,4,12.002,4C16.4,4,20,7.6,20,11.998
			s-3.6,7.999-7.999,7.999c-3.878,0-7.132-2.794-7.849-6.471L2.12,13.526z"/>
		<polygon points="11.002,6.999 11.002,12.301 14.203,16.598 15.803,15.401 13.002,11.7 13.002,6.999 		"/>
	</g>
</g>
<g id="Layer_1">
</g>
</svg>
